<svg width="235" height="154" viewBox="0 0 235 154" fill="none" xmlns="http://www.w3.org/2000/svg">
<g filter="url(#filter0_d_58_4)">
<rect x="2.20291" y="-0.45933" width="64.6544" height="66.4073" transform="matrix(0.573598 -0.819137 0.853165 0.521642 -22.0776 80.0279)" stroke="#1F2937" stroke-width="3.08798"/>
<rect x="2.20291" y="-0.45933" width="64.6544" height="66.4073" transform="matrix(0.573598 -0.819137 0.853165 0.521642 -19.6694 90.8396)" fill="#FDE047" stroke="#1F2937" stroke-width="3.08798"/>
<rect x="2.20291" y="-0.45933" width="64.6544" height="66.4073" transform="matrix(0.573598 -0.819137 0.853165 0.521642 -17.2613 101.652)" stroke="#1F2937" stroke-width="3.08798"/>
</g>
<g filter="url(#filter1_d_58_4)">
<rect x="3.31156" y="-0.653482" width="96.9816" height="99.611" transform="matrix(0.582358 -0.812932 0.847516 0.53077 51.019 9.99043)" stroke="#1F2937" stroke-width="4.63197"/>
<rect x="3.31156" y="-0.653482" width="96.9816" height="99.611" transform="matrix(0.582358 -0.812932 0.847516 0.53077 54.457 26.246)" fill="#A855F7" stroke="#1F2937" stroke-width="4.63197"/>
<rect x="3.31156" y="-0.653482" width="96.9816" height="99.611" transform="matrix(0.582358 -0.812932 0.847516 0.53077 57.8949 42.5019)" stroke="#1F2937" stroke-width="4.63197"/>
</g>
<defs>
<filter id="filter0_d_58_4" x="-37.5489" y="12.3478" width="131.244" height="141.646" filterUnits="userSpaceOnUse" color-interpolation-filters="sRGB">
<feFlood flood-opacity="0" result="BackgroundImageFix"/>
<feColorMatrix in="SourceAlpha" type="matrix" values="0 0 0 0 0 0 0 0 0 0 0 0 0 0 0 0 0 0 127 0" result="hardAlpha"/>
<feOffset dy="3.53503"/>
<feGaussianBlur stdDeviation="7.07006"/>
<feComposite in2="hardAlpha" operator="out"/>
<feColorMatrix type="matrix" values="0 0 0 0 0 0 0 0 0 0 0 0 0 0 0 0 0 0 0.5 0"/>
<feBlend mode="normal" in2="BackgroundImageFix" result="effect1_dropShadow_58_4"/>
<feBlend mode="normal" in="SourceGraphic" in2="effect1_dropShadow_58_4" result="shape"/>
</filter>
<filter id="filter1_d_58_4" x="18.2024" y="-102.345" width="216.159" height="232.205" filterUnits="userSpaceOnUse" color-interpolation-filters="sRGB">
<feFlood flood-opacity="0" result="BackgroundImageFix"/>
<feColorMatrix in="SourceAlpha" type="matrix" values="0 0 0 0 0 0 0 0 0 0 0 0 0 0 0 0 0 0 127 0" result="hardAlpha"/>
<feOffset dy="3.53503"/>
<feGaussianBlur stdDeviation="15.4399"/>
<feComposite in2="hardAlpha" operator="out"/>
<feColorMatrix type="matrix" values="0 0 0 0 0 0 0 0 0 0 0 0 0 0 0 0 0 0 0.5 0"/>
<feBlend mode="normal" in2="BackgroundImageFix" result="effect1_dropShadow_58_4"/>
<feBlend mode="normal" in="SourceGraphic" in2="effect1_dropShadow_58_4" result="shape"/>
</filter>
</defs>
</svg>
