<svg width="206" height="153" viewBox="0 0 206 153" fill="none" xmlns="http://www.w3.org/2000/svg">
<g filter="url(#filter0_d_58_4)">
<rect x="2.20291" y="-0.45933" width="64.6544" height="66.4073" transform="matrix(0.573598 -0.819137 0.853165 0.521642 -51.0776 79.0279)" stroke="#1F2937" stroke-width="3.08798"/>
<rect x="2.20291" y="-0.45933" width="64.6544" height="66.4073" transform="matrix(0.573598 -0.819137 0.853165 0.521642 -48.6694 89.8396)" fill="#FDE047" stroke="#1F2937" stroke-width="3.08798"/>
<rect x="2.20291" y="-0.45933" width="64.6544" height="66.4073" transform="matrix(0.573598 -0.819137 0.853165 0.521642 -46.2613 100.652)" stroke="#1F2937" stroke-width="3.08798"/>
</g>
<g filter="url(#filter1_d_58_4)">
<rect x="3.31156" y="-0.653482" width="96.9816" height="99.611" transform="matrix(0.582358 -0.812932 0.847516 0.53077 22.019 8.99043)" stroke="#1F2937" stroke-width="4.63197"/>
<rect x="3.31156" y="-0.653482" width="96.9816" height="99.611" transform="matrix(0.582358 -0.812932 0.847516 0.53077 25.457 25.246)" fill="#A855F7" stroke="#1F2937" stroke-width="4.63197"/>
<rect x="3.31156" y="-0.653482" width="96.9816" height="99.611" transform="matrix(0.582358 -0.812932 0.847516 0.53077 28.8949 41.5019)" stroke="#1F2937" stroke-width="4.63197"/>
</g>
<defs>
<filter id="filter0_d_58_4" x="-66.5489" y="11.3478" width="131.244" height="141.646" filterUnits="userSpaceOnUse" color-interpolation-filters="sRGB">
<feFlood flood-opacity="0" result="BackgroundImageFix"/>
<feColorMatrix in="SourceAlpha" type="matrix" values="0 0 0 0 0 0 0 0 0 0 0 0 0 0 0 0 0 0 127 0" result="hardAlpha"/>
<feOffset dy="3.53503"/>
<feGaussianBlur stdDeviation="7.07006"/>
<feComposite in2="hardAlpha" operator="out"/>
<feColorMatrix type="matrix" values="0 0 0 0 0 0 0 0 0 0 0 0 0 0 0 0 0 0 0.5 0"/>
<feBlend mode="normal" in2="BackgroundImageFix" result="effect1_dropShadow_58_4"/>
<feBlend mode="normal" in="SourceGraphic" in2="effect1_dropShadow_58_4" result="shape"/>
</filter>
<filter id="filter1_d_58_4" x="-10.7976" y="-103.345" width="216.159" height="232.205" filterUnits="userSpaceOnUse" color-interpolation-filters="sRGB">
<feFlood flood-opacity="0" result="BackgroundImageFix"/>
<feColorMatrix in="SourceAlpha" type="matrix" values="0 0 0 0 0 0 0 0 0 0 0 0 0 0 0 0 0 0 127 0" result="hardAlpha"/>
<feOffset dy="3.53503"/>
<feGaussianBlur stdDeviation="15.4399"/>
<feComposite in2="hardAlpha" operator="out"/>
<feColorMatrix type="matrix" values="0 0 0 0 0 0 0 0 0 0 0 0 0 0 0 0 0 0 0.5 0"/>
<feBlend mode="normal" in2="BackgroundImageFix" result="effect1_dropShadow_58_4"/>
<feBlend mode="normal" in="SourceGraphic" in2="effect1_dropShadow_58_4" result="shape"/>
</filter>
</defs>
</svg>
